# xmcd
#
# Track frame offsets:
#	179
#	4305
#	17105
#	23932
#	27297
#	36661
#	43790
#	56362
#	63273
#	71751
#	80336
#	98555
#	109086
#	112552
#	125111
#	133237
#	142027
#	151634
#	169192
#	174146
#	185644
#
# Disc length: 2640 seconds
# Revision: 2
# Processed by: cddbd v1.5.2PL0 Copyright (c) Steve Scherf et al.
# Submitted via: dBpowerAMP V12.0
#
DISCID=1a0a4e15
DTITLE=Johnny Cash - Complete Columbia Album Collection, Disc 21 [The Holy Land]
DYEAR=1968
DGENRE=Country
TTITLE0=Prologue
TTITLE1=Land of Israel
TTITLE2=A Mother's Love [narrative]
TTITLE3=This Is Nazareth
TTITLE4=Nazarene
TTITLE5=Town of Cana
TTITLE6=He Turned the Water into Wine
TTITLE7=My Wife June at the Sea of Galilee [narrative]
TTITLE8=Beautiful Words [narrative]
TTITLE9=Our Guide Jacob at Mount Tabor
TTITLE10=The Ten Commandments
TTITLE11=Daddy Sang Bass
TTITLE12=At the Wailing Wall [narrative]
TTITLE13=Come to the Wailing Wall [narrative]
TTITLE14=In Bethlehem [narrative]
TTITLE15=In Garden of Gethsemane [narrative]
TTITLE16=The Fourth Man
TTITLE17=On the Via Dolorosa [narrative]
TTITLE18=Church of the Holy Sepulchre [narrative]
TTITLE19=At Calvary [narrative]
TTITLE20=God Is Not Dead
EXTD=
EXTT0=
EXTT1=
EXTT2=
EXTT3=
EXTT4=
EXTT5=
EXTT6=
EXTT7=
EXTT8=
EXTT9=
EXTT10=
EXTT11=
EXTT12=
EXTT13=
EXTT14=
EXTT15=
EXTT16=
EXTT17=
EXTT18=
EXTT19=
EXTT20=
PLAYORDER=
